PathFileType	4	(X/Y/Z)	C:/Users/beibeiliu/ov580/test_trc/capture2\sequence.4_training_dense_left.trc
DataRate	CameraRate	NumFrames	NumMarkers	Units	OrigDataRate	OrigDataStartFrame	OrigNumFrames
120	120	21	19	mm	120	178	355
Frame#	Time	ThumbCMC			ThumbMCP			ThumbIP			ThumbTip			IndexMCP			IndexPIP			IndexTip			MiddleMCP			MiddlePIP			MiddleTip			RingMCP			RingPIP			RingTip			PinkyMCP			PinkyPIP			PinkyTip			BackHand1			BackHand2			BackHand3	
		X0	Y0	Z0	X1	Y1	Z1	X2	Y2	Z2	X3	Y3	Z3	X4	Y4	Z4	X5	Y5	Z5	X6	Y6	Z6	X7	Y7	Z7	X8	Y8	Z8	X9	Y9	Z9	X10	Y10	Z10	X11	Y11	Z11	X12	Y12	Z12	X13	Y13	Z13	X14	Y14	Z14	X15	Y15	Z15	X16	Y16	Z16	X17	Y17	Z17	X18	Y18	Z18	
177	1.475	-123.269	17.5197	-19.2025	-99.5372	-1.38239	-37.999	-91.7128	-14.089	-57.7724	-100.757	-35.8233	-77.0953	-142.534	8.04455	-92.18	-138.784	-1.78312	-113.619	-135.032	-10.3975	-138.523	-135.621	-21.611	-84.2375	-106.834	-34.9611	-71.8066	-115.885	-20.4016	-41.4116	-134.184	-36.9607	-73.9255	-113.381	-43.7166	-53.8371	-126.21	-20.4299	-28.3524	-147.342	-51.5885	-60.1656	-122.997	-49.4828	-40.0587	-135.053	-25.791	-18.7898	-178.788	-16.3466	-43.4664	-183.056	-10.2839	-8.23985	-165.77	16.1557	-28.747	
178	1.48333	-119.52	11.7741	-18.1926	-103.551	-9.50976	-37.3877	-90.1062	-23.0761	-60.7937	-99.4492	-41.4827	-77.5185	-137.607	7.27823	-87.9081	-136.662	-3.54862	-112.701	-132.449	-11.2306	-139.621	-131.133	-22.749	-87.7051	-108.339	-38.9309	-72.236	-115.86	-24.5878	-41.0934	-138.842	-38.3092	-74.3907	-118.153	-50.307	-51.3036	-125.254	-26.3038	-28.7144	-148.816	-53.1249	-61.7905	-128.366	-52.5728	-43.65	-134.589	-28.8957	-21.37	-179.279	-14.2943	-42.6896	-181.273	-3.06714	-13.1288	-160.005	19.0971	-28.9644	
179	1.49167	-116.792	6.28579	-14.3031	-99.5682	-14.7997	-32.0302	-94.2611	-30.6158	-58.1619	-103.211	-44.7528	-74.2035	-133.024	6.21114	-91.1169	-128.237	1.69863	-110.592	-130.964	-11.2782	-133.973	-132.708	-21.0318	-85.8833	-112.512	-43.6609	-76.8152	-117.932	-32.5265	-41.3265	-144.757	-40.9346	-73.9436	-122.514	-52.5799	-56.4827	-127.904	-31.2906	-28.1514	-153.12	-51.6089	-63.2277	-132.453	-53.1295	-42.2676	-138.424	-32.1465	-20.5643	-178.053	-7.55467	-41.1971	-177.885	0.925636	-10.1949	-155.301	18.9717	-26.0356	
180	1.5	-113.956	1.42116	-14.3441	-98.0249	-21.105	-30.8651	-92.2958	-37.0692	-60.6278	-108.058	-49.468	-78.5473	-128.415	6.69746	-84.8608	-123.524	-0.80677	-112.243	-120.416	-6.44101	-135.593	-128.356	-22.3706	-87.152	-112.978	-46.8423	-73.8445	-118.049	-34.1579	-39.9654	-142.834	-40.6066	-76.8508	-125.029	-53.3186	-59.001	-129.53	-33.744	-28.1229	-153.722	-44.1183	-65.1412	-137.385	-53.6905	-44.3528	-140.058	-32.4868	-20.7424	-170.632	2.22541	-44.4666	-177.494	6.99302	-15.5269	-149.268	17.9516	-25.5442	
181	1.50833	-112.032	-2.75779	-13.7091	-95.8077	-27.1922	-34.2135	-91.9062	-39.939	-56.5982	-106.37	-49.6627	-79.9682	-117.842	9.19179	-87.6284	-115.2	2.04614	-107.321	-110.676	-4.21834	-136.13	-128.618	-19.8756	-85.8846	-114.702	-46.0325	-77.5121	-121.111	-35.3072	-38.7158	-146.308	-33.1229	-75.6578	-128.9	-52.6438	-54.1345	-131.343	-34.4652	-29.429	-161.124	-39.6997	-65.8874	-139.851	-48.9943	-44.3885	-143.616	-27.2463	-20.8497	-165.829	8.52649	-43.7241	-172.163	11.4302	-10.7379	-142.228	20.7109	-28.304	
182	1.51667	-109.893	-6.02539	-8.70204	-97.1881	-31.1187	-32.399	-94.0603	-44.1042	-58.4938	-105.278	-50.3059	-78.9157	-110.44	9.4728	-82.2345	-106.428	3.26498	-105.216	-104.896	-2.34954	-133.624	-124.544	-17.342	-85.6342	-118.924	-48.6429	-73.2848	-122.697	-39.175	-41.5273	-138.803	-30.1041	-76.1278	-132.644	-50.2282	-54.7506	-135.776	-28.1609	-27.098	-158.025	-33.9844	-67.1496	-149.26	-49.0942	-43.9882	-147.059	-21.9384	-22.5722	-161.811	12.8814	-42.3429	-164.896	18.4034	-9.49986	-133.529	22.3754	-23.0517	
183	1.525	-108.185	-8.82206	-9.72262	-98.2038	-35.5791	-31.6669	-96.1746	-46.6821	-57.2647	-112.866	-48.2173	-79.3604	-106.509	7.9922	-82.9378	-97.5914	1.58563	-108.84	-97.3461	-2.5958	-130.154	-125.828	-14.6502	-84.0802	-122.246	-48.4915	-73.6696	-124.308	-36.1667	-39.5676	-141.886	-25.5975	-75.7489	-139.058	-49.1153	-53.8273	-135.719	-28.8695	-28.7089	-160.454	-26.5564	-68.0756	-148.276	-42.2968	-45.1758	-144.496	-22.1751	-21.9779	-152.699	18.849	-39.1037	-161.533	23.2268	-9.87653	-127.593	22.8596	-19.6194	
184	1.53333	-104.289	-13.7625	-11.7406	-100.893	-40.0101	-32.0404	-102.619	-49.0668	-57.8703	-112.911	-50.647	-78.4407	-101.035	5.971	-79.9897	-95.2417	-0.255542	-103.123	-96.8437	-3.91907	-128.784	-124.195	-17.8093	-85.9394	-122.809	-46.4058	-78.1286	-125.277	-38.9209	-41.2658	-143.037	-25.0643	-77.1228	-140.666	-45.7249	-56.2426	-137.75	-25.174	-27.0546	-158.385	-22.4476	-68.6852	-150.559	-39.2313	-45.777	-148.748	-18.0988	-22.1512	-147.944	22.9356	-40.5035	-152.557	23.9914	-7.89853	-119.767	21.5668	-21.1657	
185	1.54167	-105.135	-19.2612	-10.1832	-104.892	-43.2708	-34.0839	-105.932	-52.2376	-61.5759	-120.098	-48.7709	-81.9673	-95.5045	3.32339	-81.3944	-92.6735	-1.80732	-102.988	-93.4947	-5.51325	-128.285	-118.31	-15.5282	-85.365	-128.66	-44.0946	-78.5321	-129.683	-37.7684	-42.9094	-140.967	-17.2046	-75.6391	-142.475	-43.5549	-60.1074	-137.986	-26.2958	-29.3575	-155.688	-12.2834	-68.7203	-155.464	-35.0325	-45.3306	-147.16	-17.056	-24.0787	-140.527	25.3734	-39.3595	-144	25.6764	-9.78213	-112.984	18.4623	-19.7457	
186	1.55	-103.689	-25.4635	-9.14516	-108.381	-48.4668	-34.9039	-109.861	-58.9591	-60.9871	-122.203	-53.1944	-82.0158	-94.3569	-1.40847	-76.6634	-89.5737	-6.05212	-106.592	-90.5069	-8.05888	-126.996	-121.42	-12.8154	-82.9664	-130.894	-45.4694	-77.8003	-132.365	-38.7768	-42.7795	-139.401	-19.9266	-76.907	-148.519	-41.8478	-57.9333	-141.425	-24.1961	-27.7615	-159.238	-13.184	-69.8946	-156.54	-32.9376	-49.9676	-143.523	-16.0281	-24.0922	-140.599	26.0997	-37.1559	-140.28	27.6409	-8.05228	-109.075	13.91	-14.9459	
187	1.55833	-109.83	-27.1151	-9.62679	-113.783	-49.4051	-33.5456	-115.309	-60.2114	-61.9589	-125.241	-53.5427	-85.2022	-92.8476	-4.922	-79.3274	-87.7465	-9.34857	-100.299	-88.8693	-11.9236	-130.415	-118.336	-18.2747	-84.927	-135.899	-44.439	-80.1184	-135.517	-40.0189	-44.8888	-138.709	-19.2393	-77.6076	-147.991	-41.3203	-60.242	-143.589	-29.52	-30.3907	-158.986	-10.7459	-70.5947	-161.28	-31.5914	-49.1072	-147.605	-16.2279	-23.9039	-131.732	21.8807	-39.1691	-140.19	25.2874	-7.71567	-110.169	12.3948	-18.36	
188	1.56667	-110.004	-31.6665	-9.60874	-114.959	-54.5384	-35.8873	-117.519	-61.7464	-63.6491	-130	-52.1495	-85.8666	-91.9654	-8.34467	-77.2031	-87.5201	-13.215	-100.207	-90.6153	-14.5441	-128.933	-121.978	-15.2464	-82.7273	-135.457	-45.7593	-80.7951	-133.637	-40.1343	-41.3254	-142.899	-17.9193	-77.9881	-153.471	-41.6663	-59.9314	-142.973	-29.0448	-29.7409	-157.007	-13.0665	-70.2347	-163.841	-31.3938	-50.8075	-152.151	-17.8538	-23.9341	-134.275	24.4865	-39.8038	-138.618	23.5826	-3.195	-108.741	9.21588	-18.5379	
189	1.575	-111.852	-34.4806	-10.3932	-119.488	-52.9933	-35.8737	-121.015	-65.3333	-61.6551	-132.227	-56.0988	-87.5587	-91.34	-12.3394	-74.0505	-88.0408	-16.767	-101.292	-88.977	-19.0565	-126.195	-120.843	-19.1989	-83.0882	-139.009	-46.6854	-81.1832	-138.598	-40.5296	-42.562	-140.491	-21.8346	-77.9608	-155.76	-43.6482	-57.8403	-143.835	-30.8051	-28.0824	-158.825	-13.8569	-71.134	-161.581	-32.7771	-51.8009	-149.09	-19.5832	-23.9222	-131.414	20.8923	-34.2965	-138.308	22.7599	-2.74863	-108.857	3.31357	-15.4437	
190	1.58333	-111.398	-38.6187	-9.71617	-119.991	-59.0159	-37.5186	-123.182	-66.9552	-64.0108	-133.795	-58.0272	-86.2902	-94.5511	-14.5144	-74.1219	-93.9841	-17.8398	-100.294	-91.6798	-21.6978	-128.595	-122.492	-22.5613	-83.643	-138.125	-51.7482	-77.8738	-140.205	-42.9856	-42.7507	-146.048	-19.4713	-76.4055	-153.7	-45.5589	-60.1887	-147.888	-32.032	-27.9203	-158.171	-11.2317	-68.9877	-162.221	-35.2799	-50.1032	-148.134	-21.5431	-22.1007	-136.024	18.3178	-39.5239	-140.402	20.067	-7.49688	-109.206	1.37797	-12.4175	
191	1.59167	-113.366	-37.1581	-11.2815	-120.335	-60.132	-32.3681	-123.913	-67.9535	-58.4408	-136.311	-57.0717	-82.2661	-95.4226	-16.5784	-76.1539	-91.9447	-20.7873	-102.089	-94.3388	-22.6087	-126.696	-123.504	-24.6865	-82.8716	-141.306	-51.0434	-79.4272	-138.816	-44.0766	-40.1996	-142.17	-26.4851	-76.4837	-155.947	-47.098	-57.1835	-147.886	-33.3816	-27.8173	-156.948	-16.117	-67.6022	-163.92	-37.7809	-49.9015	-147.532	-22.5894	-23.9706	-135.845	17.7097	-38.2428	-140.126	18.7976	-7.58654	-113.615	2.3865	-13.5423	
192	1.6	-112.323	-41.8311	-7.65235	-119.985	-63.0292	-34.221	-125.51	-67.5274	-60.7412	-138.565	-61.04	-85.1819	-94.1786	-18.1256	-77.805	-95.5407	-21.7701	-99.8532	-91.7917	-27.5591	-127.836	-124.131	-24.7716	-80.8845	-142.457	-51.6541	-77.7449	-140.994	-46.9771	-40.8704	-146.566	-26.3146	-75.211	-156.525	-49.4552	-56.3264	-143.279	-36.3094	-26.8996	-162.389	-16.1344	-67.8693	-166.681	-38.8178	-48.6179	-151.902	-25.1627	-20.4892	-136.494	14.9875	-34.574	-138.594	14.8681	-1.61617	-111.744	-0.617322	-13.347	
193	1.60833	-112.188	-43.0575	-5.15894	-122.889	-62.8043	-31.9608	-126.8	-69.7284	-61.3472	-137.152	-65.0625	-83.2157	-94.4241	-20.6837	-78.3749	-92.9877	-26.592	-100.885	-95.753	-27.4235	-127.951	-125.355	-31.3514	-82.8594	-142.669	-54.5348	-77.3775	-141.542	-47.7236	-40.1763	-148.183	-29.2116	-75.1934	-155.935	-51.2145	-55.5854	-148.388	-39.7873	-27.2633	-158.199	-17.1524	-66.4257	-166.561	-40.8193	-47.2962	-149.874	-24.9635	-19.0189	-137.167	13.0737	-38.0722	-141.128	17.5821	-3.70177	-110.037	-3.2295	-13.9609	
194	1.61667	-114.238	-43.4277	-9.15525	-121.579	-66.292	-32.3218	-127.367	-72.563	-56.3121	-138.446	-62.9881	-80.4478	-96.6193	-22.8005	-76.8475	-93.5485	-29.5356	-103.549	-93.4858	-31.6342	-124.236	-124.119	-32.6195	-81.1755	-143.036	-58.6517	-74.1535	-142.925	-50.4134	-40.1834	-146.375	-27.9624	-73.777	-158.121	-52.192	-57.4771	-145.399	-39.4356	-24.8101	-160.209	-19.4494	-66.4073	-163.253	-42.2488	-44.9613	-148.885	-28.1416	-20.1708	-136.862	11.7667	-35.0585	-140.739	12.3075	-2.9776	-112.253	-3.49675	-11.9312	
195	1.625	-115.04	-45.9052	-4.7505	-122.65	-67.213	-28.7786	-125.499	-75.462	-57.874	-137.138	-70.472	-78.6181	-95.5462	-26.2066	-73.4923	-94.2856	-32.1894	-103.114	-95.2475	-35.9794	-125.574	-125.373	-35.1843	-81.7776	-144.274	-59.0443	-77.1534	-139.465	-52.6168	-37.2921	-148.427	-30.0603	-72.8057	-159.758	-54.0455	-55.9728	-149.303	-43.3066	-25.0882	-159.927	-24.4524	-65.0523	-164.064	-44.5349	-47.0065	-147.309	-29.9222	-20.7452	-134.486	9.69954	-35.9956	-138.038	10.3981	-5.86109	-110.442	-5.52655	-16.4752	
196	1.63333	-115.063	-45.6364	-5.61185	-121.842	-69.178	-26.1987	-125.67	-79.9307	-53.3555	-137.157	-71.7722	-81.753	-93.6735	-30.169	-73.5554	-94.742	-35.5024	-97.8263	-96.6087	-39.4276	-125.443	-124.298	-36.0613	-78.9412	-144.739	-62.6527	-71.622	-136.998	-56.6914	-34.7388	-146.568	-35.1535	-72.7304	-153.856	-58.6607	-51.9438	-144.97	-45.6347	-23.6502	-158.154	-26.0945	-63.8351	-163.406	-46.5979	-43.3694	-149.219	-30.671	-18.1385	-135.174	8.09554	-36.0822	-138.157	12.0195	-4.29013	-108.189	-9.27678	-11.565	
197	1.64167	-110.853	-50.1862	-3.49759	-121.332	-72.2061	-23.776	-125.974	-80.488	-53.3091	-136.522	-77.1016	-77.3044	-92.3428	-34.3466	-74.6948	-93.4201	-40.8898	-100.772	-94.0716	-45.9469	-122.55	-125.772	-39.8481	-78.1604	-139.29	-67.871	-71.8469	-136.944	-59.6233	-32.6394	-144.586	-38.8763	-70.8566	-153.729	-60.9397	-51.7946	-147.333	-46.5185	-22.2442	-157.668	-29.8094	-63.0775	-163.03	-48.488	-41.2592	-149.483	-36.1856	-15.9699	-132.365	3.76195	-36.3117	-138.431	7.95671	-1.63284	-109.28	-10.4543	-14.9363	
